<svg xmlns="http://www.w3.org/2000/svg" xmlns:xlink="http://www.w3.org/1999/xlink" width="100" zoomAndPan="magnify" viewBox="0 0 75 37.5" height="50" preserveAspectRatio="xMidYMid meet" version="1.0"><defs><g/><clipPath id="b509cd4205"><path d="M 38 4.234375 L 46.589844 4.234375 L 46.589844 19 L 38 19 Z M 38 4.234375 " clip-rule="nonzero"/></clipPath><clipPath id="e52c6a00ce"><path d="M 25.867188 5 L 43 5 L 43 17 L 25.867188 17 Z M 25.867188 5 " clip-rule="nonzero"/></clipPath><clipPath id="dee1fb53f5"><path d="M 26 19 L 38 19 L 38 20.515625 L 26 20.515625 Z M 26 19 " clip-rule="nonzero"/></clipPath><clipPath id="6576d927f0"><path d="M 38 19 L 40 19 L 40 20.515625 L 38 20.515625 Z M 38 19 " clip-rule="nonzero"/></clipPath></defs><g clip-path="url(#b509cd4205)"><path fill="#231f20" d="M 45.394531 4.234375 L 39.789062 4.234375 C 39.632812 4.234375 39.480469 4.261719 39.335938 4.320312 C 39.191406 4.382812 39.0625 4.464844 38.949219 4.574219 C 38.839844 4.683594 38.753906 4.808594 38.691406 4.953125 C 38.628906 5.097656 38.597656 5.246094 38.597656 5.402344 L 41.398438 5.402344 C 41.554688 5.402344 41.707031 5.429688 41.855469 5.492188 C 42 5.550781 42.128906 5.636719 42.242188 5.746094 C 42.351562 5.859375 42.4375 5.984375 42.5 6.128906 C 42.558594 6.273438 42.589844 6.425781 42.589844 6.582031 L 42.589844 15.957031 C 42.589844 16.117188 42.558594 16.265625 42.5 16.410156 C 42.4375 16.554688 42.351562 16.683594 42.242188 16.792969 C 42.128906 16.90625 42 16.992188 41.855469 17.050781 C 41.707031 17.109375 41.554688 17.140625 41.398438 17.140625 L 38.59375 17.140625 L 38.59375 17.203125 C 38.59375 17.359375 38.625 17.511719 38.6875 17.65625 C 38.746094 17.800781 38.832031 17.929688 38.945312 18.039062 C 39.054688 18.148438 39.183594 18.234375 39.332031 18.296875 C 39.476562 18.355469 39.628906 18.386719 39.789062 18.386719 L 45.394531 18.386719 C 45.550781 18.386719 45.703125 18.355469 45.851562 18.296875 C 45.996094 18.234375 46.125 18.148438 46.238281 18.039062 C 46.347656 17.929688 46.433594 17.800781 46.496094 17.65625 C 46.554688 17.511719 46.585938 17.359375 46.585938 17.203125 L 46.585938 5.414062 C 46.585938 5.257812 46.554688 5.109375 46.496094 4.964844 C 46.433594 4.820312 46.347656 4.691406 46.238281 4.578125 C 46.125 4.46875 45.996094 4.382812 45.851562 4.324219 C 45.703125 4.261719 45.550781 4.234375 45.394531 4.234375 Z M 44.464844 6.144531 C 44.464844 6.03125 44.523438 5.976562 44.636719 5.976562 C 44.75 5.976562 44.804688 6.03125 44.804688 6.144531 L 44.804688 6.933594 C 44.804688 7.046875 44.75 7.101562 44.636719 7.101562 C 44.523438 7.101562 44.464844 7.046875 44.464844 6.933594 Z M 44.285156 15.078125 C 44.285156 15.175781 44.25 15.257812 44.183594 15.328125 C 44.113281 15.394531 44.03125 15.429688 43.933594 15.429688 C 43.835938 15.429688 43.75 15.394531 43.683594 15.328125 C 43.613281 15.257812 43.578125 15.175781 43.578125 15.078125 L 43.578125 9.371094 C 43.578125 9.273438 43.613281 9.191406 43.683594 9.121094 C 43.75 9.054688 43.835938 9.019531 43.933594 9.019531 C 44.03125 9.019531 44.113281 9.054688 44.183594 9.121094 C 44.25 9.191406 44.285156 9.273438 44.285156 9.371094 Z M 44.578125 7.820312 C 44.417969 7.808594 44.273438 7.75 44.144531 7.648438 C 44.019531 7.546875 43.933594 7.421875 43.886719 7.265625 C 43.839844 7.109375 43.84375 6.957031 43.894531 6.804688 C 43.945312 6.652344 44.035156 6.527344 44.164062 6.429688 C 44.199219 6.402344 44.238281 6.398438 44.277344 6.417969 C 44.320312 6.4375 44.339844 6.472656 44.339844 6.515625 L 44.339844 6.675781 C 44.339844 6.703125 44.328125 6.726562 44.308594 6.75 C 44.167969 6.898438 44.144531 7.0625 44.238281 7.246094 C 44.332031 7.425781 44.480469 7.503906 44.683594 7.480469 C 44.863281 7.460938 44.988281 7.367188 45.050781 7.199219 C 45.113281 7.03125 45.085938 6.878906 44.960938 6.75 C 44.941406 6.726562 44.933594 6.703125 44.929688 6.675781 L 44.929688 6.515625 C 44.929688 6.46875 44.953125 6.4375 44.992188 6.417969 C 45.035156 6.398438 45.074219 6.402344 45.109375 6.429688 C 45.246094 6.535156 45.339844 6.667969 45.386719 6.832031 C 45.433594 6.996094 45.429688 7.160156 45.367188 7.320312 C 45.304688 7.480469 45.203125 7.605469 45.054688 7.699219 C 44.910156 7.792969 44.75 7.832031 44.578125 7.820312 Z M 45.59375 15.078125 C 45.59375 15.175781 45.558594 15.257812 45.488281 15.328125 C 45.421875 15.394531 45.335938 15.429688 45.238281 15.429688 C 45.140625 15.429688 45.058594 15.394531 44.988281 15.328125 C 44.917969 15.257812 44.882812 15.175781 44.882812 15.078125 L 44.882812 9.371094 C 44.882812 9.273438 44.917969 9.191406 44.988281 9.121094 C 45.058594 9.054688 45.140625 9.019531 45.238281 9.019531 C 45.335938 9.019531 45.417969 9.054688 45.488281 9.121094 C 45.558594 9.191406 45.59375 9.273438 45.59375 9.371094 Z M 45.59375 15.078125 " fill-opacity="1" fill-rule="nonzero"/></g><g clip-path="url(#e52c6a00ce)"><path fill="#231f20" d="M 27.398438 16.707031 L 40.484375 16.707031 C 40.6875 16.707031 40.878906 16.667969 41.066406 16.59375 C 41.253906 16.515625 41.417969 16.40625 41.5625 16.265625 C 41.703125 16.121094 41.8125 15.960938 41.890625 15.773438 C 41.96875 15.589844 42.007812 15.398438 42.007812 15.195312 L 42.007812 7.4375 C 42.007812 7.238281 41.96875 7.046875 41.890625 6.859375 C 41.8125 6.675781 41.703125 6.511719 41.5625 6.371094 C 41.417969 6.230469 41.253906 6.121094 41.066406 6.042969 C 40.878906 5.964844 40.6875 5.929688 40.484375 5.929688 L 27.398438 5.929688 C 27.195312 5.929688 27.003906 5.96875 26.816406 6.042969 C 26.628906 6.121094 26.464844 6.230469 26.320312 6.371094 C 26.179688 6.511719 26.070312 6.675781 25.992188 6.859375 C 25.914062 7.046875 25.875 7.238281 25.875 7.4375 L 25.875 15.195312 C 25.875 15.398438 25.914062 15.589844 25.992188 15.773438 C 26.066406 15.960938 26.179688 16.121094 26.320312 16.265625 C 26.464844 16.40625 26.628906 16.515625 26.816406 16.59375 C 27.003906 16.667969 27.195312 16.707031 27.398438 16.707031 Z M 26.386719 7.4375 C 26.386719 7.304688 26.414062 7.179688 26.464844 7.054688 C 26.515625 6.933594 26.589844 6.824219 26.683594 6.730469 C 26.777344 6.636719 26.886719 6.5625 27.011719 6.511719 C 27.136719 6.460938 27.265625 6.4375 27.398438 6.4375 L 40.484375 6.4375 C 40.617188 6.4375 40.746094 6.460938 40.871094 6.511719 C 40.996094 6.5625 41.105469 6.636719 41.199219 6.730469 C 41.292969 6.824219 41.367188 6.933594 41.417969 7.054688 C 41.472656 7.179688 41.496094 7.304688 41.496094 7.4375 L 41.496094 15.195312 C 41.496094 15.328125 41.472656 15.457031 41.417969 15.582031 C 41.367188 15.703125 41.292969 15.8125 41.199219 15.90625 C 41.105469 16 40.996094 16.070312 40.871094 16.125 C 40.746094 16.175781 40.617188 16.199219 40.484375 16.199219 L 27.398438 16.199219 C 27.265625 16.199219 27.136719 16.171875 27.011719 16.121094 C 26.886719 16.070312 26.777344 16 26.683594 15.90625 C 26.589844 15.8125 26.515625 15.703125 26.464844 15.578125 C 26.414062 15.457031 26.386719 15.328125 26.386719 15.195312 Z M 26.386719 7.4375 " fill-opacity="1" fill-rule="nonzero"/></g><path fill="#231f20" d="M 33.058594 17.082031 C 32.804688 17.082031 32.585938 17.171875 32.40625 17.347656 C 32.226562 17.527344 32.136719 17.742188 32.136719 17.996094 L 32.136719 18.371094 C 32.136719 18.5 32.183594 18.613281 32.277344 18.707031 C 32.371094 18.800781 32.488281 18.847656 32.621094 18.847656 L 35.261719 18.847656 C 35.398438 18.847656 35.511719 18.800781 35.605469 18.707031 C 35.699219 18.613281 35.746094 18.5 35.746094 18.371094 L 35.746094 17.996094 C 35.746094 17.742188 35.65625 17.527344 35.476562 17.347656 C 35.296875 17.171875 35.078125 17.082031 34.824219 17.082031 Z M 33.058594 17.082031 " fill-opacity="1" fill-rule="nonzero"/><g clip-path="url(#dee1fb53f5)"><path fill="#231f20" d="M 37.28125 19.390625 C 37.265625 19.308594 37.210938 19.25 37.148438 19.25 L 26.441406 19.25 C 26.382812 19.25 26.328125 19.308594 26.308594 19.390625 L 26.136719 20.277344 C 26.113281 20.398438 26.175781 20.515625 26.269531 20.515625 L 37.324219 20.515625 C 37.414062 20.515625 37.480469 20.398438 37.457031 20.277344 Z M 37.28125 19.390625 " fill-opacity="1" fill-rule="nonzero"/></g><g clip-path="url(#6576d927f0)"><path fill="#231f20" d="M 39.03125 19.570312 L 38.542969 19.570312 C 38.40625 19.570312 38.289062 19.617188 38.191406 19.714844 C 38.09375 19.8125 38.042969 19.929688 38.042969 20.066406 L 38.042969 20.226562 C 38.042969 20.28125 38.070312 20.308594 38.125 20.308594 L 39.449219 20.308594 C 39.503906 20.308594 39.53125 20.28125 39.53125 20.226562 L 39.53125 20.066406 C 39.53125 19.929688 39.480469 19.8125 39.382812 19.714844 C 39.285156 19.617188 39.167969 19.570312 39.03125 19.570312 Z M 39.03125 19.570312 " fill-opacity="1" fill-rule="nonzero"/></g><g fill="#000000" fill-opacity="1"><g transform="translate(14.979954, 28.261245)"><g><path d="M 2.546875 0 L 0.4375 0 L 0.4375 -4.265625 L 1.40625 -4.265625 L 1.40625 -0.296875 L 2.546875 -0.296875 Z M 2.546875 0 "/></g></g></g><g fill="#000000" fill-opacity="1"><g transform="translate(18.79739, 28.261245)"><g><path d="M 3.734375 -1.609375 C 3.734375 -1.097656 3.582031 -0.691406 3.28125 -0.390625 C 2.988281 -0.0859375 2.578125 0.0625 2.046875 0.0625 C 1.515625 0.0625 1.101562 -0.0859375 0.8125 -0.390625 C 0.519531 -0.691406 0.375 -1.097656 0.375 -1.609375 L 0.375 -2.640625 C 0.375 -3.148438 0.519531 -3.554688 0.8125 -3.859375 C 1.101562 -4.171875 1.515625 -4.328125 2.046875 -4.328125 C 2.578125 -4.328125 2.988281 -4.171875 3.28125 -3.859375 C 3.582031 -3.554688 3.734375 -3.148438 3.734375 -2.640625 Z M 2.75 -1.125 L 2.75 -3.140625 C 2.75 -3.421875 2.6875 -3.648438 2.5625 -3.828125 C 2.445312 -4.015625 2.273438 -4.109375 2.046875 -4.109375 C 1.816406 -4.109375 1.644531 -4.015625 1.53125 -3.828125 C 1.414062 -3.648438 1.359375 -3.421875 1.359375 -3.140625 L 1.359375 -1.125 C 1.359375 -0.832031 1.414062 -0.597656 1.53125 -0.421875 C 1.644531 -0.242188 1.816406 -0.15625 2.046875 -0.15625 C 2.273438 -0.15625 2.445312 -0.242188 2.5625 -0.421875 C 2.6875 -0.597656 2.75 -0.832031 2.75 -1.125 Z M 2.75 -1.125 "/></g></g></g><g fill="#000000" fill-opacity="1"><g transform="translate(24.150357, 28.261245)"><g><path d="M 3.734375 -0.484375 C 3.734375 0.0234375 3.65625 0.398438 3.5 0.640625 C 3.3125 0.921875 3.066406 1.109375 2.765625 1.203125 C 2.578125 1.265625 2.363281 1.296875 2.125 1.296875 C 1.539062 1.296875 1.0625 1.132812 0.6875 0.8125 L 0.8125 0.640625 C 1.164062 0.910156 1.53125 1.046875 1.90625 1.046875 C 2.5 1.046875 2.796875 0.671875 2.796875 -0.078125 L 2.796875 -0.421875 C 2.734375 -0.296875 2.632812 -0.179688 2.5 -0.078125 C 2.375 0.015625 2.210938 0.0625 2.015625 0.0625 C 1.515625 0.0625 1.113281 -0.0859375 0.8125 -0.390625 C 0.519531 -0.691406 0.375 -1.082031 0.375 -1.5625 L 0.375 -2.703125 C 0.375 -3.160156 0.523438 -3.546875 0.828125 -3.859375 C 1.140625 -4.171875 1.546875 -4.328125 2.046875 -4.328125 C 2.429688 -4.328125 2.78125 -4.210938 3.09375 -3.984375 C 3.40625 -3.765625 3.5625 -3.46875 3.5625 -3.09375 L 3.5625 -3 L 2.734375 -3 L 2.734375 -3.140625 C 2.722656 -3.429688 2.660156 -3.664062 2.546875 -3.84375 C 2.429688 -4.019531 2.257812 -4.109375 2.03125 -4.109375 C 1.8125 -4.109375 1.640625 -4.019531 1.515625 -3.84375 C 1.398438 -3.664062 1.34375 -3.429688 1.34375 -3.140625 L 1.34375 -1.109375 C 1.34375 -0.828125 1.398438 -0.597656 1.515625 -0.421875 C 1.640625 -0.242188 1.816406 -0.15625 2.046875 -0.15625 C 2.273438 -0.15625 2.445312 -0.242188 2.5625 -0.421875 C 2.6875 -0.597656 2.75 -0.828125 2.75 -1.109375 L 2.75 -1.25 L 3.734375 -1.25 Z M 3.734375 -0.484375 "/></g></g></g><g fill="#000000" fill-opacity="1"><g transform="translate(29.429323, 28.261245)"><g><path d="M 1.40625 -4.265625 L 1.40625 0 L 0.4375 0 L 0.4375 -4.265625 Z M 1.40625 -4.265625 "/></g></g></g><g fill="#000000" fill-opacity="1"><g transform="translate(32.519078, 28.261245)"><g><path d="M 3.640625 -2.59375 L 3.640625 -1.65625 C 3.640625 -1.175781 3.476562 -0.78125 3.15625 -0.46875 C 2.84375 -0.15625 2.429688 0 1.921875 0 L 0.4375 0 L 0.4375 -4.265625 L 1.921875 -4.265625 C 2.429688 -4.265625 2.84375 -4.101562 3.15625 -3.78125 C 3.476562 -3.46875 3.640625 -3.070312 3.640625 -2.59375 Z M 2.671875 -2.890625 C 2.671875 -3.265625 2.582031 -3.550781 2.40625 -3.75 C 2.226562 -3.945312 1.988281 -4.046875 1.6875 -4.046875 L 1.40625 -4.046875 L 1.40625 -0.203125 L 1.6875 -0.203125 C 1.988281 -0.203125 2.226562 -0.300781 2.40625 -0.5 C 2.582031 -0.707031 2.671875 -1 2.671875 -1.375 Z M 2.671875 -2.890625 "/></g></g></g><g fill="#000000" fill-opacity="1"><g transform="translate(37.779542, 28.261245)"><g><path d="M 2.78125 -1.40625 L 2.78125 -2.890625 C 2.78125 -3.191406 2.695312 -3.46875 2.53125 -3.71875 C 2.375 -3.976562 2.164062 -4.109375 1.90625 -4.109375 C 1.78125 -4.109375 1.675781 -4.066406 1.59375 -3.984375 C 1.519531 -3.910156 1.46875 -3.804688 1.4375 -3.671875 C 1.375 -3.472656 1.34375 -3.269531 1.34375 -3.0625 L 1.34375 -1.21875 C 1.34375 -0.851562 1.394531 -0.582031 1.5 -0.40625 C 1.613281 -0.238281 1.757812 -0.15625 1.9375 -0.15625 C 2.195312 -0.15625 2.398438 -0.273438 2.546875 -0.515625 C 2.703125 -0.765625 2.78125 -1.0625 2.78125 -1.40625 Z M 3.765625 0 L 2.796875 0 L 2.796875 -0.671875 C 2.691406 -0.429688 2.550781 -0.25 2.375 -0.125 C 2.195312 0 2.015625 0.0625 1.828125 0.0625 C 1.378906 0.0625 1.023438 -0.0703125 0.765625 -0.34375 C 0.503906 -0.625 0.375 -1.019531 0.375 -1.53125 L 0.375 -2.75 C 0.375 -3.257812 0.519531 -3.648438 0.8125 -3.921875 C 1.101562 -4.191406 1.445312 -4.328125 1.84375 -4.328125 C 2.070312 -4.328125 2.269531 -4.25 2.4375 -4.09375 C 2.601562 -3.945312 2.722656 -3.765625 2.796875 -3.546875 L 2.796875 -4.265625 L 3.765625 -4.265625 Z M 3.765625 0 "/></g></g></g><g fill="#000000" fill-opacity="1"><g transform="translate(43.225011, 28.261245)"><g><path d="M 3.640625 -2.59375 L 3.640625 -1.65625 C 3.640625 -1.175781 3.476562 -0.78125 3.15625 -0.46875 C 2.84375 -0.15625 2.429688 0 1.921875 0 L 0.4375 0 L 0.4375 -4.265625 L 1.921875 -4.265625 C 2.429688 -4.265625 2.84375 -4.101562 3.15625 -3.78125 C 3.476562 -3.46875 3.640625 -3.070312 3.640625 -2.59375 Z M 2.671875 -2.890625 C 2.671875 -3.265625 2.582031 -3.550781 2.40625 -3.75 C 2.226562 -3.945312 1.988281 -4.046875 1.6875 -4.046875 L 1.40625 -4.046875 L 1.40625 -0.203125 L 1.6875 -0.203125 C 1.988281 -0.203125 2.226562 -0.300781 2.40625 -0.5 C 2.582031 -0.707031 2.671875 -1 2.671875 -1.375 Z M 2.671875 -2.890625 "/></g></g></g><g fill="#000000" fill-opacity="1"><g transform="translate(48.485475, 28.261245)"><g><path d="M 3.734375 -1.609375 C 3.734375 -1.097656 3.582031 -0.691406 3.28125 -0.390625 C 2.988281 -0.0859375 2.578125 0.0625 2.046875 0.0625 C 1.515625 0.0625 1.101562 -0.0859375 0.8125 -0.390625 C 0.519531 -0.691406 0.375 -1.097656 0.375 -1.609375 L 0.375 -2.640625 C 0.375 -3.148438 0.519531 -3.554688 0.8125 -3.859375 C 1.101562 -4.171875 1.515625 -4.328125 2.046875 -4.328125 C 2.578125 -4.328125 2.988281 -4.171875 3.28125 -3.859375 C 3.582031 -3.554688 3.734375 -3.148438 3.734375 -2.640625 Z M 2.75 -1.125 L 2.75 -3.140625 C 2.75 -3.421875 2.6875 -3.648438 2.5625 -3.828125 C 2.445312 -4.015625 2.273438 -4.109375 2.046875 -4.109375 C 1.816406 -4.109375 1.644531 -4.015625 1.53125 -3.828125 C 1.414062 -3.648438 1.359375 -3.421875 1.359375 -3.140625 L 1.359375 -1.125 C 1.359375 -0.832031 1.414062 -0.597656 1.53125 -0.421875 C 1.644531 -0.242188 1.816406 -0.15625 2.046875 -0.15625 C 2.273438 -0.15625 2.445312 -0.242188 2.5625 -0.421875 C 2.6875 -0.597656 2.75 -0.832031 2.75 -1.125 Z M 2.75 -1.125 "/></g></g></g><g fill="#000000" fill-opacity="1"><g transform="translate(53.838441, 28.261245)"><g><path d="M 2.890625 -2 C 3.210938 -1.800781 3.375 -1.535156 3.375 -1.203125 C 3.375 -0.867188 3.203125 -0.570312 2.859375 -0.3125 C 2.515625 -0.0625 2.128906 0.0625 1.703125 0.0625 C 1.273438 0.0625 0.910156 -0.046875 0.609375 -0.265625 C 0.304688 -0.484375 0.15625 -0.789062 0.15625 -1.1875 L 0.15625 -1.265625 L 0.9375 -1.265625 L 0.9375 -1.125 C 0.9375 -0.84375 1.015625 -0.609375 1.171875 -0.421875 C 1.328125 -0.242188 1.515625 -0.15625 1.734375 -0.15625 C 1.960938 -0.15625 2.144531 -0.226562 2.28125 -0.375 C 2.414062 -0.519531 2.484375 -0.71875 2.484375 -0.96875 C 2.484375 -1.15625 2.34375 -1.335938 2.0625 -1.515625 L 0.828125 -2.265625 C 0.484375 -2.472656 0.3125 -2.757812 0.3125 -3.125 C 0.3125 -3.425781 0.445312 -3.703125 0.71875 -3.953125 C 1 -4.203125 1.347656 -4.328125 1.765625 -4.328125 C 1.984375 -4.328125 2.175781 -4.289062 2.34375 -4.21875 C 2.507812 -4.15625 2.632812 -4.070312 2.71875 -3.96875 C 2.863281 -3.789062 2.9375 -3.640625 2.9375 -3.515625 L 2.9375 -3.46875 L 2.734375 -3.46875 C 2.734375 -3.613281 2.65625 -3.753906 2.5 -3.890625 C 2.34375 -4.035156 2.15625 -4.109375 1.9375 -4.109375 C 1.71875 -4.109375 1.53125 -4.039062 1.375 -3.90625 C 1.21875 -3.769531 1.140625 -3.59375 1.140625 -3.375 C 1.140625 -3.25 1.179688 -3.140625 1.265625 -3.046875 C 1.359375 -2.953125 1.484375 -2.863281 1.640625 -2.78125 Z M 2.890625 -2 "/></g></g></g><g fill="#000000" fill-opacity="1"><g transform="translate(27.784308, 32.787829)"><g><path d="M 0.40625 0 L 0.1875 0 L 0.1875 -1.46875 C 0.1875 -1.46875 0.179688 -1.476562 0.171875 -1.5 C 0.171875 -1.519531 0.164062 -1.539062 0.15625 -1.5625 C 0.15625 -1.59375 0.15625 -1.609375 0.15625 -1.609375 L 0.40625 -1.609375 Z M 0.40625 0 "/></g></g></g><g fill="#000000" fill-opacity="1"><g transform="translate(28.636943, 32.787829)"><g><path d="M 1.390625 0.015625 L 1.265625 0.015625 L 0.359375 -1.359375 L 0.359375 0 L 0.1875 0 L 0.1875 -1.46875 C 0.1875 -1.46875 0.179688 -1.476562 0.171875 -1.5 C 0.171875 -1.519531 0.164062 -1.539062 0.15625 -1.5625 C 0.15625 -1.59375 0.15625 -1.609375 0.15625 -1.609375 L 0.4375 -1.609375 L 1.21875 -0.40625 L 1.21875 -1.609375 L 1.390625 -1.609375 Z M 1.390625 0.015625 "/></g></g></g><g fill="#000000" fill-opacity="1"><g transform="translate(30.479881, 32.787829)"><g><path d="M 0.390625 0 L 0.1875 0 L 0.1875 -1.46875 C 0.1875 -1.46875 0.179688 -1.476562 0.171875 -1.5 C 0.171875 -1.519531 0.164062 -1.539062 0.15625 -1.5625 C 0.15625 -1.59375 0.15625 -1.609375 0.15625 -1.609375 L 1.046875 -1.609375 L 1.046875 -1.46875 L 0.390625 -1.46875 L 0.390625 -0.90625 L 0.921875 -0.90625 L 0.921875 -0.75 L 0.390625 -0.75 Z M 0.390625 0 "/></g></g></g><g fill="#000000" fill-opacity="1"><g transform="translate(31.869855, 32.787829)"><g><path d="M 0.8125 0.03125 C 0.695312 0.03125 0.59375 0.0078125 0.5 -0.03125 C 0.40625 -0.0820312 0.328125 -0.144531 0.265625 -0.21875 C 0.210938 -0.300781 0.171875 -0.390625 0.140625 -0.484375 C 0.117188 -0.585938 0.109375 -0.695312 0.109375 -0.8125 C 0.109375 -1.039062 0.164062 -1.234375 0.28125 -1.390625 C 0.40625 -1.554688 0.582031 -1.640625 0.8125 -1.640625 C 1.039062 -1.640625 1.21875 -1.554688 1.34375 -1.390625 C 1.46875 -1.234375 1.53125 -1.039062 1.53125 -0.8125 C 1.53125 -0.65625 1.503906 -0.515625 1.453125 -0.390625 C 1.398438 -0.265625 1.316406 -0.160156 1.203125 -0.078125 C 1.097656 -0.00390625 0.96875 0.03125 0.8125 0.03125 Z M 1.3125 -0.8125 C 1.3125 -0.894531 1.300781 -0.972656 1.28125 -1.046875 C 1.269531 -1.117188 1.242188 -1.1875 1.203125 -1.25 C 1.171875 -1.320312 1.117188 -1.378906 1.046875 -1.421875 C 0.984375 -1.460938 0.90625 -1.484375 0.8125 -1.484375 C 0.726562 -1.484375 0.648438 -1.460938 0.578125 -1.421875 C 0.515625 -1.378906 0.460938 -1.320312 0.421875 -1.25 C 0.390625 -1.1875 0.363281 -1.113281 0.34375 -1.03125 C 0.332031 -0.957031 0.328125 -0.878906 0.328125 -0.796875 C 0.328125 -0.710938 0.332031 -0.632812 0.34375 -0.5625 C 0.363281 -0.488281 0.390625 -0.414062 0.421875 -0.34375 C 0.460938 -0.28125 0.515625 -0.226562 0.578125 -0.1875 C 0.648438 -0.144531 0.726562 -0.125 0.8125 -0.125 C 0.90625 -0.125 0.984375 -0.144531 1.046875 -0.1875 C 1.117188 -0.226562 1.171875 -0.28125 1.203125 -0.34375 C 1.242188 -0.414062 1.269531 -0.488281 1.28125 -0.5625 C 1.300781 -0.632812 1.3125 -0.71875 1.3125 -0.8125 Z M 1.3125 -0.8125 "/></g></g></g><g fill="#000000" fill-opacity="1"><g transform="translate(33.763862, 32.787829)"><g><path d="M 1.328125 0 L 1.09375 0 L 0.671875 -0.734375 C 0.640625 -0.722656 0.582031 -0.71875 0.5 -0.71875 L 0.390625 -0.71875 L 0.390625 0 L 0.1875 0 L 0.1875 -1.46875 C 0.1875 -1.46875 0.179688 -1.476562 0.171875 -1.5 C 0.171875 -1.519531 0.164062 -1.539062 0.15625 -1.5625 C 0.15625 -1.59375 0.15625 -1.609375 0.15625 -1.609375 L 0.640625 -1.609375 C 1.003906 -1.609375 1.1875 -1.460938 1.1875 -1.171875 C 1.1875 -1.078125 1.15625 -0.992188 1.09375 -0.921875 C 1.03125 -0.847656 0.957031 -0.796875 0.875 -0.765625 Z M 0.390625 -0.875 L 0.578125 -0.875 C 0.691406 -0.875 0.785156 -0.894531 0.859375 -0.9375 C 0.929688 -0.988281 0.96875 -1.070312 0.96875 -1.1875 C 0.96875 -1.269531 0.9375 -1.335938 0.875 -1.390625 C 0.8125 -1.441406 0.734375 -1.46875 0.640625 -1.46875 L 0.390625 -1.46875 Z M 0.390625 -0.875 "/></g></g></g><g fill="#000000" fill-opacity="1"><g transform="translate(35.333691, 32.787829)"><g><path d="M 1.671875 0 L 1.46875 0 L 1.46875 -1.3125 L 0.96875 0 L 0.859375 0 L 0.359375 -1.3125 L 0.359375 0 L 0.203125 0 L 0.203125 -1.46875 L 0.171875 -1.609375 L 0.46875 -1.609375 L 0.9375 -0.359375 L 1.390625 -1.609375 L 1.671875 -1.609375 Z M 1.671875 0 "/></g></g></g><g fill="#000000" fill-opacity="1"><g transform="translate(37.451962, 32.787829)"><g><path d="M 1.375 0 L 1.140625 0 L 0.96875 -0.5 L 0.421875 -0.5 L 0.234375 0 L 0.046875 0 L 0.609375 -1.484375 L 0.8125 -1.484375 Z M 0.90625 -0.65625 L 0.6875 -1.234375 L 0.484375 -0.65625 Z M 0.78125 -1.59375 L 0.609375 -1.59375 L 0.828125 -1.921875 L 1.09375 -1.921875 Z M 0.78125 -1.59375 "/></g></g></g><g fill="#000000" fill-opacity="1"><g transform="translate(39.110606, 32.787829)"><g><path d="M 0.75 0 L 0.53125 0 L 0.53125 -1.46875 L 0.046875 -1.46875 L 0.046875 -1.609375 L 1.234375 -1.609375 L 1.234375 -1.46875 L 0.75 -1.46875 Z M 0.75 0 "/></g></g></g><g fill="#000000" fill-opacity="1"><g transform="translate(40.651569, 32.787829)"><g><path d="M 0.40625 0 L 0.1875 0 L 0.1875 -1.46875 C 0.1875 -1.46875 0.179688 -1.476562 0.171875 -1.5 C 0.171875 -1.519531 0.164062 -1.539062 0.15625 -1.5625 C 0.15625 -1.59375 0.15625 -1.609375 0.15625 -1.609375 L 0.40625 -1.609375 Z M 0.40625 0 "/></g></g></g><g fill="#000000" fill-opacity="1"><g transform="translate(41.504203, 32.787829)"><g><path d="M 1.25 -0.28125 L 1.34375 -0.125 C 1.289062 -0.0820312 1.21875 -0.046875 1.125 -0.015625 C 1.03125 0.015625 0.941406 0.03125 0.859375 0.03125 C 0.617188 0.03125 0.429688 -0.046875 0.296875 -0.203125 C 0.171875 -0.367188 0.109375 -0.570312 0.109375 -0.8125 C 0.109375 -1.050781 0.171875 -1.25 0.296875 -1.40625 C 0.429688 -1.5625 0.617188 -1.640625 0.859375 -1.640625 C 0.941406 -1.640625 1.03125 -1.625 1.125 -1.59375 C 1.21875 -1.5625 1.289062 -1.519531 1.34375 -1.46875 L 1.234375 -1.328125 C 1.191406 -1.378906 1.132812 -1.414062 1.0625 -1.4375 C 0.988281 -1.46875 0.921875 -1.484375 0.859375 -1.484375 C 0.765625 -1.484375 0.679688 -1.460938 0.609375 -1.421875 C 0.546875 -1.378906 0.492188 -1.320312 0.453125 -1.25 C 0.410156 -1.1875 0.378906 -1.113281 0.359375 -1.03125 C 0.335938 -0.957031 0.328125 -0.878906 0.328125 -0.796875 C 0.328125 -0.710938 0.335938 -0.628906 0.359375 -0.546875 C 0.378906 -0.472656 0.410156 -0.40625 0.453125 -0.34375 C 0.492188 -0.28125 0.546875 -0.226562 0.609375 -0.1875 C 0.679688 -0.15625 0.765625 -0.140625 0.859375 -0.140625 C 0.921875 -0.140625 0.988281 -0.148438 1.0625 -0.171875 C 1.132812 -0.203125 1.195312 -0.238281 1.25 -0.28125 Z M 1.25 -0.28125 "/></g></g></g><g fill="#000000" fill-opacity="1"><g transform="translate(43.147305, 32.787829)"><g><path d="M 1.359375 0 L 1.140625 0 L 0.953125 -0.546875 L 0.421875 -0.546875 L 0.21875 0 L 0.046875 0 L 0.59375 -1.609375 L 0.796875 -1.609375 Z M 0.890625 -0.703125 L 0.6875 -1.34375 L 0.46875 -0.703125 Z M 0.890625 -0.703125 "/></g></g></g></svg>